<svg xmlns="http://www.w3.org/2000/svg" viewBox="0 0 400 300" preserveAspectRatio="xMidYMid slice">
  <defs>
    <linearGradient id="bgGradientDark" x1="0%" y1="0%" x2="100%" y2="100%">
      <stop offset="0%" style="stop-color:#374151"/>
      <stop offset="50%" style="stop-color:#4b5563"/>
      <stop offset="100%" style="stop-color:#374151"/>
    </linearGradient>
    <linearGradient id="shapeGradientDark" x1="0%" y1="0%" x2="100%" y2="100%">
      <stop offset="0%" style="stop-color:#6b7280"/>
      <stop offset="100%" style="stop-color:#4b5563"/>
    </linearGradient>
  </defs>
  
  <!-- Background -->
  <rect width="400" height="300" fill="url(#bgGradientDark)"/>
  
  <!-- Decorative circles -->
  <circle cx="320" cy="60" r="40" fill="#4b5563" opacity="0.6"/>
  <circle cx="80" cy="240" r="30" fill="#4b5563" opacity="0.4"/>
  
  <!-- Mountain shape -->
  <path d="M0 300 L120 180 L180 220 L280 120 L400 220 L400 300 Z" fill="#4b5563" opacity="0.7"/>
  <path d="M0 300 L80 240 L160 280 L400 200 L400 300 Z" fill="#3f4a59" opacity="0.5"/>
  
  <!-- Image icon -->
  <g transform="translate(160, 110)">
    <rect x="0" y="0" width="80" height="60" rx="8" fill="url(#shapeGradientDark)" opacity="0.4"/>
    <circle cx="25" cy="20" r="8" fill="#6b7280" opacity="0.6"/>
    <path d="M10 50 L30 35 L45 45 L60 25 L70 35 L70 52 L10 52 Z" fill="#6b7280" opacity="0.5"/>
  </g>
</svg>
